<svg width="24" height="24" viewBox="0 0 24 24" fill="none" xmlns="http://www.w3.org/2000/svg">
<g id="search">
<path id="Shape" fill-rule="evenodd" clip-rule="evenodd" d="M15.9001 14H15.1001L14.8001 13.7C15.8001 12.6 16.4001 11.1 16.4001 9.5C16.4001 5.9 13.5001 3 9.90009 3C6.30009 3 3.40009 5.9 3.40009 9.5C3.40009 13.1 6.30009 16 9.90009 16C11.5001 16 13.0001 15.4 14.1001 14.4L14.4001 14.7V15.5L19.4001 20.5L20.9001 19L15.9001 14ZM9.90009 14C7.40009 14 5.40009 12 5.40009 9.5C5.40009 7 7.40009 5 9.90009 5C12.4001 5 14.4001 7 14.4001 9.5C14.4001 12 12.4001 14 9.90009 14Z" fill="#0088FF"/>
</g>
</svg>
